<?xml version="1.0" encoding="utf-8"?>
<!-- Generator: Adobe Illustrator 27.4.0, SVG Export Plug-In . SVG Version: 6.00 Build 0)  -->
<svg version="1.1" id="Calque_1" xmlns="http://www.w3.org/2000/svg" xmlns:xlink="http://www.w3.org/1999/xlink" x="0px" y="0px"
	 viewBox="0 0 156.1 47.3" style="enable-background:new 0 0 156.1 47.3;" xml:space="preserve">
<style type="text/css">
	.st0{fill:#E45868;}
	.st1{fill:#FFFFFF;}
</style>
<g id="Calque_2_00000013180734025939007860000004491735625215193498_">
	<g id="Calque_1-2">
		<path class="st0" d="M46.1,1.3C26.5-4,6.5,7.6,1.2,27.1c-1.2,4.4-1.5,9-1,13.6c0.2,1.3,1.3,2.2,2.6,2c0.5-0.1,1-0.3,1.3-0.7
			l3.6-3.6C8.5,37.7,9,36.6,9,35.4v-7.3c0-2.1,0.8-4.1,2.3-5.6l2.3-2.3c0.4-0.4,0.6-0.9,0.5-1.5c-0.2-1.3,0.7-2.6,2.1-2.8
			c1.3-0.2,2.6,0.7,2.8,2.1c0.2,1.3-0.7,2.6-2.1,2.8c-0.2,0-0.4,0-0.6,0c-0.6-0.1-1.2,0.1-1.6,0.5l-2.3,2.3
			c-1.2,1.2-1.8,2.8-1.8,4.4v6.3c0,0.3,0.2,0.5,0.5,0.5c0.1,0,0.3-0.1,0.4-0.2l21.2-21.2c0.4-0.4,0.6-1.1,0.5-1.7
			c-0.3-1.6,0.7-3.1,2.3-3.4c1.6-0.3,3.1,0.7,3.4,2.3s-0.7,3.1-2.3,3.4c-0.4,0.1-0.7,0.1-1.1,0c-0.6-0.1-1.2,0.1-1.7,0.5L19.7,28.8
			c-0.2,0.2-0.2,0.5,0,0.7c0.1,0.1,0.2,0.1,0.4,0.1h6.3c1.7,0,3.3-0.7,4.4-1.8l2.3-2.3c0.4-0.4,0.6-1,0.5-1.6
			c-0.2-1.4,0.8-2.6,2.2-2.7c1.3-0.1,2.6,0.8,2.7,2.2c0.2,1.4-0.8,2.6-2.2,2.7c-0.2,0-0.4,0-0.6,0c-0.5-0.1-1.1,0.1-1.5,0.5L31.9,29
			c-1.5,1.5-3.5,2.3-5.6,2.3H19c-1.2,0-2.3,0.5-3.1,1.3L5.3,43.2c-0.9,0.9-0.9,2.3,0,3.2c0.4,0.4,0.8,0.6,1.3,0.7
			c20.1,2.3,38.2-12.2,40.5-32.3C47.6,10.3,47.3,5.7,46.1,1.3"/>
	</g>
</g>
<path class="st1" d="M67.4,10.4c1.5,1.2,2.4,3.1,2.4,5.1L65,15.7c0-1.9-1.4-3.1-3.5-3.1s-3.4,1-3.4,2.7c0,0.7,0.3,1.4,0.9,1.8
	c1.1,0.5,2.3,0.9,3.5,1.1c2.1,0.4,4,1.3,5.8,2.4c1.3,1,2,2.6,1.9,4.2c0.1,2-0.8,4-2.4,5.2c-1.7,1.2-3.8,1.8-6,1.7
	c-2.3,0.1-4.6-0.6-6.5-1.9c-1.7-1.3-2.6-3.3-2.6-5.4l4.8-0.2c0.1,2.1,1.9,3.5,4.3,3.5c2.4,0,3.6-0.9,3.6-2.6c0-1.7-1.3-2.3-4.7-3.1
	c-1.2-0.3-2.2-0.6-2.9-0.8c-0.8-0.3-1.5-0.7-2.3-1.1c-1.5-1-2.4-2.8-2.3-4.6c0-1.9,0.7-3.7,2.1-4.9c1.6-1.4,3.8-2.1,6-2
	C63.6,8.4,65.7,9.1,67.4,10.4"/>
<path class="st1" d="M78.2,31.5h-4.4V15.8h4.4V31.5z M78.6,10.7c0,0.7-0.3,1.4-0.8,1.9c-1,1-2.7,1-3.7,0s-1-2.7,0-3.7
	c0.5-0.5,1.2-0.8,1.9-0.8C77.5,8.1,78.6,9.2,78.6,10.7C78.6,10.7,78.6,10.7,78.6,10.7"/>
<path class="st1" d="M116.7,21.9v9.6h-4.4v-8.7c0-2-1.1-3.1-2.8-3.1c-1.6,0-2.9,1.2-2.9,2.8c0,0.1,0,0.2,0,0.3v8.7h-4.4V15.8h4.2
	v1.6c1-1.3,2.6-2.1,4.2-1.9C114.2,15.5,116.7,17.9,116.7,21.9"/>
<path class="st1" d="M124.7,22.1h6.3c-0.1-2-1.1-3.1-3.1-3.1c-1.7-0.1-3.1,1.2-3.2,2.9C124.7,21.9,124.7,22,124.7,22.1 M135.5,25.1
	h-10.7c-0.1,1.7,1.2,3.1,2.9,3.2c0.1,0,0.2,0,0.3,0c1.6,0,2.6-0.6,2.9-1.7l4.4,0.2c-0.3,1.5-1.2,2.8-2.4,3.7c-1.4,1-3.1,1.5-4.8,1.4
	c-4.6-0.2-8.3-4.1-8.1-8.7c0.1-2,0.9-3.9,2.2-5.4c1.5-1.5,3.6-2.3,5.7-2.3c2-0.1,4,0.7,5.5,2.1c1.4,1.5,2.2,3.6,2,5.7L135.5,25.1
	L135.5,25.1z"/>
<path class="st0" d="M66.2,45.1c0,0.1,0,0.2,0,0.3c0.1,0.4,0.5,0.8,0.9,0.8c0.7,0,1.1-0.6,1.1-1.5c0-0.9-0.4-1.5-1.1-1.5
	c-0.5,0-0.9,0.3-1,0.8c0,0.1,0,0.2,0,0.3C66.2,44.4,66.2,45.1,66.2,45.1z M64.6,43.9v-1.8H66l0.1,0.7l0,0c0.4-0.6,1-0.9,1.7-0.8
	c1.3,0.1,2.3,1.2,2.2,2.5c0,0,0,0.1,0,0.1c0.2,1.4-0.8,2.6-2.2,2.8c-0.1,0-0.1,0-0.2,0c-0.5,0-1-0.2-1.4-0.6l0,0v2.6h-1.6L64.6,43.9
	z"/>
<path class="st0" d="M72.4,44.7c0,0.9,0.4,1.6,1.1,1.6s1-0.6,1-1.6c0-0.9-0.3-1.6-1-1.6S72.4,44,72.4,44.7 M76.2,44.7
	c0.1,1.4-1,2.7-2.4,2.8c-0.1,0-0.2,0-0.3,0c-1.4,0.1-2.6-1-2.7-2.4c0-0.1,0-0.2,0-0.3c-0.1-1.4,1-2.7,2.4-2.8c0.1,0,0.2,0,0.3,0
	c1.4-0.1,2.6,1,2.7,2.4C76.2,44.5,76.2,44.6,76.2,44.7"/>
<path class="st0" d="M77.2,43.8v-1.7h1.4l0.1,1l0,0c0.2-0.6,0.7-1.1,1.4-1.1c0.1,0,0.2,0,0.3,0v1.5c-0.1,0-0.3,0-0.4,0
	c-0.5-0.1-1,0.3-1.1,0.8c0,0.1,0,0.2,0,0.4v2.6h-1.6C77.2,47.3,77.2,43.8,77.2,43.8z"/>
<path class="st0" d="M83.3,40.6v1.5h1.1v1.2h-1.1v1.9c0,0.6,0.2,0.9,0.6,0.9c0.2,0,0.3,0,0.5,0v1.2c-0.3,0.1-0.7,0.2-1,0.1
	c-0.5,0-0.9-0.1-1.2-0.5c-0.3-0.4-0.5-1-0.5-1.5v-2.1H81v-1.2h0.7V41L83.3,40.6L83.3,40.6z"/>
<path class="st0" d="M88.1,44.9c-0.8,0-1.5,0.2-1.5,0.8c0,0.3,0.2,0.6,0.5,0.6c0,0,0.1,0,0.1,0c0.4,0,0.7-0.2,0.8-0.6
	c0-0.1,0-0.2,0-0.3C88.1,45.4,88.1,44.9,88.1,44.9z M88.3,47.3l-0.1-0.5l0,0c-0.4,0.4-0.9,0.7-1.5,0.6c-0.9,0.1-1.6-0.6-1.7-1.5
	c0,0,0-0.1,0-0.1c0-1.4,1.2-2,3.1-2v-0.1c0-0.3-0.1-0.7-1-0.7c-0.5,0-1,0.1-1.5,0.4l-0.3-1c0.6-0.3,1.3-0.5,2-0.5
	c1.1-0.1,2.1,0.7,2.3,1.8c0,0.2,0,0.3,0,0.5v1.8c0,0.4,0,0.8,0.1,1.3C89.8,47.3,88.3,47.3,88.3,47.3z"/>
<path class="st0" d="M94.3,44.2c0-0.1,0-0.2,0-0.3c-0.1-0.4-0.5-0.7-0.9-0.7c-0.6,0-1.1,0.5-1.1,1.5s0.4,1.4,1.1,1.4
	c0.4,0,0.8-0.3,0.9-0.7c0-0.1,0-0.3,0-0.4L94.3,44.2L94.3,44.2z M96,42.1v4.5c0.1,0.9-0.2,1.7-0.8,2.3c-0.6,0.5-1.4,0.7-2.1,0.6
	c-0.7,0-1.3-0.1-1.9-0.4l0.3-1.2c0.5,0.3,1,0.4,1.5,0.4c0.7,0.1,1.3-0.4,1.4-1.1c0-0.1,0-0.2,0-0.3v-0.3l0,0
	c-0.3,0.4-0.9,0.7-1.4,0.7c-1.2,0-2.2-1-2.2-2.3c0-0.1,0-0.2,0-0.2c-0.1-1.4,0.8-2.6,2.2-2.7c0,0,0.1,0,0.1,0c0.6,0,1.1,0.2,1.4,0.7
	l0,0v-0.6L96,42.1L96,42.1z"/>
<path class="st0" d="M100.4,44.1c0.1-0.5-0.3-1-0.8-1c0,0,0,0-0.1,0c-0.6,0-1,0.5-1,1H100.4z M98.5,45.3c0,0.7,0.7,1,1.5,1
	c0.5,0,1-0.1,1.4-0.2l0.2,1.1c-0.6,0.2-1.3,0.3-1.9,0.3c-1.4,0.2-2.6-0.8-2.8-2.2c0-0.1,0-0.3,0-0.5c-0.1-1.4,1-2.7,2.4-2.8
	c0.1,0,0.1,0,0.2,0c1.3,0,2.3,1,2.3,2.3c0,0.1,0,0.2,0,0.3c0,0.2,0,0.4,0,0.6L98.5,45.3L98.5,45.3z"/>
<path class="st0" d="M105,45.9c0.4,0.2,0.9,0.4,1.4,0.4c0.5,0,0.7-0.2,0.7-0.4c0-0.3-0.2-0.4-0.8-0.6c-1.1-0.3-1.5-0.9-1.5-1.6
	c0-1,0.8-1.7,2.1-1.7c0.5,0,1,0.1,1.5,0.3l-0.3,1.1c-0.3-0.2-0.7-0.3-1.1-0.3c-0.4,0-0.6,0.2-0.6,0.4s0.2,0.4,0.8,0.6
	c1,0.3,1.4,0.8,1.4,1.6c0,1-0.8,1.7-2.3,1.7c-0.6,0-1.2-0.1-1.7-0.4L105,45.9z"/>
<path class="st0" d="M112.4,44.9c-0.9,0-1.5,0.2-1.5,0.8c0,0.3,0.2,0.6,0.5,0.6c0,0,0.1,0,0.1,0c0.4,0,0.7-0.2,0.8-0.6
	c0-0.1,0-0.2,0-0.3C112.4,45.4,112.4,44.9,112.4,44.9z M112.6,47.3l-0.1-0.5l0,0c-0.4,0.4-0.9,0.7-1.5,0.6c-0.9,0.1-1.6-0.6-1.7-1.5
	c0,0,0-0.1,0-0.1c0-1.4,1.2-2,3.1-2v-0.1c0-0.3-0.2-0.7-1-0.7c-0.5,0-1,0.1-1.4,0.4l-0.3-1c0.6-0.3,1.3-0.5,2-0.5
	c1.1-0.1,2.1,0.6,2.3,1.7c0,0.2,0,0.3,0,0.5v1.8c0,0.4,0,0.8,0.1,1.3C114.1,47.3,112.6,47.3,112.6,47.3z"/>
<rect x="115.3" y="39.8" class="st0" width="1.6" height="7.6"/>
<path class="st0" d="M121,44.9c-0.9,0-1.5,0.2-1.5,0.8c0,0.3,0.2,0.6,0.5,0.6c0,0,0.1,0,0.1,0c0.4,0,0.7-0.2,0.8-0.6
	c0-0.1,0-0.2,0-0.3C121,45.4,121,44.9,121,44.9z M121.2,47.3l-0.1-0.5l0,0c-0.4,0.4-0.9,0.7-1.5,0.6c-0.9,0.1-1.6-0.6-1.7-1.5
	c0,0,0-0.1,0-0.1c0-1.4,1.2-2,3.1-2v-0.1c0-0.3-0.1-0.7-0.9-0.7c-0.5,0-1,0.1-1.4,0.4l-0.3-1c0.6-0.3,1.3-0.5,2-0.5
	c1.1-0.1,2.1,0.7,2.3,1.8c0,0.2,0,0.3,0,0.5v1.8c0,0.4,0,0.8,0.1,1.3C122.6,47.3,121.2,47.3,121.2,47.3z"/>
<path class="st0" d="M123.8,43.8v-1.7h1.4l0.1,1l0,0c0.2-0.6,0.7-1.1,1.4-1.1c0.1,0,0.2,0,0.3,0v1.5c-0.1,0-0.3,0-0.4,0
	c-0.5-0.1-1,0.3-1.1,0.8c0,0.1,0,0.2,0,0.4v2.6h-1.6L123.8,43.8z"/>
<path class="st0" d="M127.9,42.1h1.6v5.2h-1.6V42.1z M129.5,40.7c0,0.5-0.3,0.9-0.8,0.9c-0.5,0-0.9-0.3-0.9-0.8
	c0-0.5,0.3-0.9,0.8-0.9c0,0,0,0,0,0C129.1,39.8,129.5,40.1,129.5,40.7C129.5,40.6,129.5,40.6,129.5,40.7"/>
<path class="st0" d="M133.6,44.9c-0.9,0-1.5,0.2-1.5,0.8c0,0.3,0.2,0.6,0.5,0.6c0,0,0.1,0,0.1,0c0.4,0,0.7-0.2,0.8-0.6
	c0-0.1,0-0.2,0-0.3C133.5,45.4,133.6,44.9,133.6,44.9z M133.8,47.3l-0.1-0.5l0,0c-0.4,0.4-0.9,0.7-1.5,0.6c-0.9,0.1-1.6-0.6-1.7-1.5
	c0,0,0-0.1,0-0.1c0-1.4,1.2-2,3.1-2v-0.1c0-0.3-0.1-0.7-0.9-0.7c-0.5,0-1,0.1-1.4,0.4l-0.3-1c0.6-0.3,1.3-0.5,2-0.5
	c1.1-0.1,2.1,0.6,2.3,1.7c0,0.2,0,0.3,0,0.5v1.8c0,0.4,0,0.8,0.1,1.3C135.2,47.3,133.8,47.3,133.8,47.3z"/>
<rect x="136.4" y="39.8" class="st0" width="1.6" height="7.6"/>
<polygon class="st1" points="150.3,21.6 155.9,21.6 155.9,25.9 150.3,25.9 150.3,31.8 145.6,31.8 145.6,25.9 140,25.9 140,21.6 
	145.6,21.6 145.6,15.9 150.3,15.9 "/>
<path class="st1" d="M93.7,24c0.2,2-1.2,3.8-3.2,4c-0.2,0-0.3,0-0.5,0c-2.3,0-3.8-1.6-3.8-4.4s1.5-4.4,3.8-4.4c2.3,0,3.7,1.5,3.7,4
	V24z M93.9,15.8v1.7c-1.1-1.4-2.9-2.1-4.7-1.9c-2.1-0.1-4,0.8-5.5,2.3c-2.8,3.4-2.8,8.4,0,11.8c1.4,1.5,3.4,2.3,5.5,2.3
	c1.6,0.1,3.3-0.5,4.4-1.7v0.4c0,2.2-1.4,3.4-3.7,3.4c-1.1,0.1-2.1-0.3-2.9-1.1h-4.7c1,3,3.6,4.8,7.8,4.8c2.1,0.1,4.2-0.6,5.8-2
	c1.5-1.4,2.2-3.4,2.1-5.4V15.8L93.9,15.8L93.9,15.8z"/>
</svg>
