<?xml version="1.0" encoding="UTF-8"?>
<svg id="Calque_1" data-name="Calque 1" xmlns="http://www.w3.org/2000/svg" viewBox="0 0 155.89 49.57">
  <defs>
    <style>
      .cls-1 {
        fill: #e45868;
      }

      .cls-2 {
        fill: #061535;
      }
    </style>
  </defs>
  <g id="Calque_2" data-name="Calque 2">
    <g id="Calque_1-2" data-name="Calque 1-2">
      <path class="cls-1" d="m46.08,1.26C26.55-3.98,6.48,7.62,1.25,27.15.06,31.57-.28,36.18.23,40.74c.16,1.26,1.31,2.15,2.57,2,.51-.06.98-.29,1.34-.66l3.58-3.57c.82-.83,1.28-1.94,1.28-3.11v-7.31c0-2.08.83-4.08,2.3-5.55l2.32-2.32c.4-.39.6-.94.53-1.5-.2-1.34.73-2.59,2.08-2.79,1.34-.2,2.59.73,2.79,2.08.2,1.34-.73,2.59-2.08,2.79-.2.03-.41.03-.61.01-.58-.08-1.16.11-1.58.51l-2.33,2.33c-1.18,1.18-1.84,2.77-1.84,4.44v6.3c0,.29.24.52.53.51.14,0,.27-.06.36-.15l21.2-21.19c.42-.44.59-1.06.46-1.66-.3-1.58.73-3.1,2.31-3.41,1.58-.3,3.1.73,3.41,2.31s-.73,3.1-2.31,3.41c-.36.07-.73.07-1.09,0-.6-.13-1.23.05-1.67.47l-14.11,14.11c-.2.2-.21.53,0,.74.1.1.23.15.36.15h6.3c1.66,0,3.26-.66,4.44-1.84l2.33-2.33c.4-.42.59-1,.51-1.58-.15-1.35.83-2.56,2.18-2.71,1.35-.15,2.56.83,2.71,2.18.15,1.35-.83,2.56-2.18,2.71-.21.02-.41.02-.62-.01-.55-.07-1.11.13-1.49.54l-2.32,2.32c-1.48,1.47-3.48,2.3-5.56,2.3h-7.33c-1.16,0-2.28.46-3.1,1.28l-10.64,10.66c-.9.9-.9,2.35,0,3.25.36.36.83.59,1.34.66,20.09,2.27,38.22-12.17,40.49-32.26.52-4.55.17-9.16-1.01-13.59"/>
    </g>
  </g>
  <path class="cls-2" d="m67.44,10.37c1.54,1.24,2.43,3.12,2.39,5.09l-4.79.25c0-1.94-1.35-3.15-3.51-3.15s-3.39,1.05-3.39,2.72c-.05.72.32,1.41.94,1.78,1.11.52,2.27.9,3.48,1.13,2.07.43,4.03,1.25,5.78,2.43,1.3,1,2.02,2.6,1.91,4.23.12,2.01-.76,3.95-2.36,5.18-1.74,1.23-3.84,1.84-5.96,1.75-2.33.11-4.63-.55-6.54-1.91-1.66-1.26-2.62-3.26-2.55-5.35l4.75-.25c.09,2.05,1.89,3.45,4.33,3.45s3.57-.88,3.57-2.61-1.3-2.26-4.66-3.12c-1.21-.3-2.18-.58-2.93-.85-.79-.3-1.55-.68-2.26-1.13-1.54-1-2.4-2.78-2.26-4.61-.05-1.86.72-3.67,2.09-4.93,1.65-1.42,3.79-2.14,5.96-2,2.16-.1,4.28.56,5.99,1.87"/>
  <path class="cls-2" d="m78.19,31.48h-4.41v-15.66h4.41v15.66Zm.45-20.77c0,.7-.27,1.38-.78,1.87-1.03,1.04-2.71,1.05-3.75.02s-1.05-2.71-.02-3.75c.5-.51,1.19-.79,1.9-.79,1.47,0,2.65,1.17,2.66,2.64v.02"/>
  <path class="cls-2" d="m116.69,21.91v9.57h-4.41v-8.73c0-1.96-1.06-3.12-2.75-3.12-1.58-.03-2.89,1.22-2.92,2.81,0,.11,0,.23.01.34v8.69h-4.41v-15.66h4.18v1.6c.96-1.34,2.56-2.07,4.21-1.91,3.66,0,6.11,2.39,6.11,6.39"/>
  <path class="cls-2" d="m124.75,22.12h6.3c-.1-1.96-1.13-3.15-3.06-3.15-1.68-.1-3.14,1.19-3.24,2.87v.28m10.75,2.93h-10.75c-.07,1.69,1.24,3.12,2.92,3.18h.34c1.58,0,2.55-.58,2.88-1.73l4.45.21c-.28,1.5-1.16,2.82-2.45,3.66-1.4.96-3.06,1.47-4.75,1.42-4.64-.17-8.25-4.07-8.08-8.7.08-2,.86-3.91,2.21-5.37,1.52-1.51,3.6-2.34,5.75-2.26,2.03-.09,4.01.67,5.45,2.09,1.42,1.55,2.16,3.6,2.03,5.7v1.79h0Z"/>
  <path class="cls-1" d="m66.23,45.11c-.01.11-.01.23,0,.34.1.44.5.76.95.77.7,0,1.13-.59,1.13-1.48s-.37-1.46-1.13-1.46c-.47,0-.88.35-.97.81-.01.1-.01.19,0,.29,0,0,.02.72.02.72Zm-1.61-1.23v-1.76h1.41l.08.73h0c.4-.56,1.05-.88,1.74-.85,1.31.09,2.29,1.23,2.19,2.54,0,.05,0,.09-.01.12.17,1.37-.8,2.6-2.16,2.77-.08,0-.15.01-.23.02-.52.03-1.03-.19-1.35-.59h0v2.58h-1.61l-.06-5.58Z"/>
  <path class="cls-1" d="m72.39,44.73c0,.89.37,1.57,1.13,1.57s1.03-.64,1.03-1.58-.29-1.56-1.03-1.56-1.13.79-1.13,1.57m3.77-.06c.09,1.43-.99,2.68-2.43,2.78h-.32c-1.41.08-2.62-.99-2.7-2.39v-.29c-.09-1.43,1-2.68,2.44-2.77h.35c1.4-.07,2.58,1,2.65,2.39v.28"/>
  <path class="cls-1" d="m77.17,43.84v-1.73h1.4l.06.97h0c.18-.64.74-1.09,1.41-1.13.11-.02.24-.02.35,0v1.52c-.15-.02-.29-.02-.44,0-.53-.07-1.03.29-1.13.82-.01.12-.01.24,0,.36v2.64h-1.63s-.02-3.47-.02-3.47Z"/>
  <path class="cls-1" d="m83.25,40.62v1.49h1.13v1.2h-1.13v1.9c0,.63.16.91.64.91.16.02.33.02.49,0v1.23c-.34.1-.7.16-1.05.15-.45.02-.89-.15-1.23-.45-.35-.44-.51-.99-.45-1.55v-2.14h-.69v-1.2h.69v-1.13l1.6-.41h0Z"/>
  <path class="cls-1" d="m88.13,44.87c-.85,0-1.51.2-1.51.82-.02.32.2.6.52.62h.12c.38,0,.72-.24.85-.6.01-.09.01-.18,0-.27,0,0,.02-.58.02-.58Zm.2,2.47l-.1-.52h0c-.37.43-.93.67-1.49.63-.88.06-1.64-.61-1.69-1.49v-.1c0-1.37,1.22-2.01,3.07-2.01v-.07c0-.27-.15-.67-.96-.67-.51,0-1,.12-1.46.36l-.3-1.04c.63-.32,1.33-.47,2.03-.46,1.12-.14,2.12.67,2.26,1.77.02.16.02.32,0,.49v1.82c0,.42.02.85.08,1.26,0,0-1.43.02-1.43.02Z"/>
  <path class="cls-1" d="m94.32,44.25c.01-.1.01-.2,0-.3-.08-.42-.45-.72-.88-.71-.59,0-1.06.53-1.06,1.48s.38,1.39,1.06,1.39c.41,0,.76-.27.87-.65.02-.15.02-.28,0-.43v-.77h.01Zm1.66-2.13v4.47c.09.86-.2,1.72-.79,2.35-.61.46-1.35.68-2.11.63-.65.01-1.3-.12-1.89-.4l.33-1.23c.46.26.98.4,1.51.4.68.07,1.29-.43,1.35-1.12v-.6h0c-.33.44-.86.7-1.41.68-1.24-.02-2.23-1.05-2.22-2.29,0-.08,0-.16.02-.25-.15-1.37.85-2.6,2.22-2.74h.14c.58-.03,1.13.25,1.43.75h0v-.63h1.41,0Z"/>
  <path class="cls-1" d="m100.38,44.13c.06-.52-.32-.99-.84-1.05h-.08c-.56.03-1,.49-1,1.05h1.92Zm-1.91,1.13c0,.67.71.99,1.47.99.49,0,.98-.07,1.44-.23l.21,1.13c-.61.23-1.25.34-1.9.33-1.38.16-2.62-.84-2.77-2.21-.01-.15-.02-.3,0-.45-.09-1.44,1-2.69,2.45-2.79h.18c1.28-.01,2.33,1,2.35,2.28,0,.11,0,.21-.02.33.02.21.02.43,0,.64l-3.41-.02h-.01Z"/>
  <path class="cls-1" d="m105,45.93c.43.24.9.36,1.39.38.5,0,.7-.17.7-.43s-.16-.41-.76-.61c-1.13-.35-1.5-.95-1.49-1.56,0-.98.82-1.72,2.12-1.72.51,0,1,.1,1.47.3l-.28,1.13c-.35-.18-.73-.28-1.13-.29-.4,0-.62.16-.62.42s.2.38.85.61c.98.33,1.4.85,1.41,1.6,0,.97-.77,1.69-2.26,1.69-.59,0-1.16-.11-1.69-.37l.29-1.16Z"/>
  <path class="cls-1" d="m112.42,44.87c-.86,0-1.51.2-1.51.82-.02.32.2.6.52.62h.12c.38,0,.72-.24.84-.6.01-.09.01-.18,0-.27,0,0,.03-.58.03-.58Zm.19,2.47l-.09-.52h0c-.37.43-.93.65-1.49.63-.88.06-1.64-.61-1.69-1.49v-.1c0-1.37,1.22-2.01,3.07-2.01v-.07c0-.27-.16-.67-.96-.67-.51,0-1,.14-1.44.38l-.29-1.04c.63-.32,1.33-.47,2.03-.46,1.11-.14,2.12.64,2.26,1.75.02.17.02.34,0,.51v1.82c0,.42.02.85.09,1.26,0,0-1.48,0-1.48,0Z"/>
  <rect class="cls-1" x="115.28" y="39.77" width="1.63" height="7.57"/>
  <path class="cls-1" d="m120.99,44.87c-.86,0-1.51.2-1.51.82-.02.32.2.6.52.62h.12c.38,0,.72-.24.84-.6.01-.09.01-.18,0-.27,0,0,.03-.58.03-.58Zm.19,2.47l-.09-.52h0c-.38.43-.93.65-1.5.63-.87.06-1.63-.61-1.68-1.48v-.11c0-1.37,1.22-2.01,3.06-2.01v-.07c0-.27-.15-.67-.95-.67-.51,0-1,.14-1.44.38l-.29-1.04c.62-.32,1.32-.47,2.02-.46,1.12-.14,2.12.67,2.26,1.77.02.16.02.32,0,.49v1.82c0,.42.02.85.08,1.26,0,0-1.46,0-1.46,0Z"/>
  <path class="cls-1" d="m123.84,43.84v-1.73h1.37l.06.97h0c.17-.64.73-1.11,1.4-1.13.11-.02.24-.02.35,0v1.52c-.15-.02-.29-.02-.44,0-.53-.07-1.03.29-1.13.82-.01.12-.01.24,0,.36v2.64h-1.63l.02-3.47Z"/>
  <path class="cls-1" d="m127.87,42.11h1.63v5.23h-1.63v-5.23Zm1.67-1.44c.02.47-.34.88-.81.9-.47.02-.88-.34-.9-.81s.34-.88.81-.9h.05c.44-.03.81.28.86.72v.09"/>
  <path class="cls-1" d="m133.57,44.87c-.86,0-1.51.2-1.51.82-.02.32.2.6.52.62h.12c.38,0,.72-.24.84-.6.01-.09.01-.18,0-.27,0,0,.03-.58.03-.58Zm.19,2.47l-.09-.52h0c-.37.43-.93.65-1.49.63-.88.06-1.64-.61-1.69-1.49v-.1c0-1.37,1.22-2.01,3.06-2.01v-.07c0-.27-.15-.67-.95-.67-.51,0-1,.14-1.44.38l-.29-1.04c.63-.32,1.33-.47,2.03-.46,1.11-.14,2.12.64,2.26,1.75.02.17.02.34,0,.51v1.82c0,.42.02.85.09,1.26,0,0-1.48,0-1.48,0Z"/>
  <rect class="cls-1" x="136.43" y="39.77" width="1.63" height="7.57"/>
  <polygon class="cls-2" points="150.27 21.63 155.89 21.63 155.89 25.94 150.27 25.94 150.27 31.75 145.63 31.75 145.63 25.94 140.01 25.94 140.01 21.63 145.63 21.63 145.63 15.87 150.27 15.87 150.27 21.63"/>
  <path class="cls-2" d="m93.68,24.03c.21,1.99-1.22,3.76-3.21,3.97-.16.02-.33.02-.49.02-2.26,0-3.78-1.6-3.78-4.36s1.51-4.36,3.78-4.36,3.69,1.54,3.69,4v.72Zm.25-8.21v1.69c-1.14-1.38-2.88-2.1-4.66-1.94-2.05-.06-4.04.77-5.45,2.26-2.79,3.44-2.79,8.36,0,11.81,1.41,1.49,3.4,2.31,5.45,2.26,1.65.11,3.25-.49,4.41-1.66v.4c0,2.18-1.39,3.39-3.66,3.39-1.07.08-2.13-.3-2.9-1.06h-4.71c.97,3,3.57,4.82,7.75,4.82,2.11.11,4.19-.62,5.76-2.03,1.46-1.42,2.23-3.39,2.14-5.42v-14.5h-4.14Z"/>
</svg>